<svg id="Capa_1" enable-background="new 0 0 512 512" height="512" viewBox="0 0 512 512" width="512" xmlns="http://www.w3.org/2000/svg"><path d="m477.31 127.27-18.233 24.227c-100.859 134.018-302.663 132.076-400.923-3.859l-19.494-26.968c45.2-72.44 125.62-120.66 217.3-120.67 94.45-.01 176.97 51.13 221.33 127.24.01.01.01.02.02.03z" fill="#22d7ff"/><path d="m512 256c0 141.38-114.62 256-256 256s-256-114.62-256-256c0-49.69 14.16-96.07 38.66-135.33 3.02-.5 6.12-.75 9.28-.75 30.44 0 55.33 23.63 57.4 53.54 4.39-1.29 9.04-2 13.85-2 14.67 0 27.83 6.44 36.83 16.63 7.65-26.46 32.03-45.82 60.96-45.82 25.51 0 39.02 15.35 39.02 15.35s14.2-58.02 73.03-58.02c31.11 0 56.97 22.39 62.4 51.93 6.44-6.13 15.14-9.9 24.72-9.9 9.87 0 18.8 3.98 25.28 10.43 4.65-14.41 18.16-24.84 34.11-24.84.59 0 1.19.01 1.77.05 22.06 37.82 34.69 81.8 34.69 128.73z" fill="#fff"/><path d="m512 256c0 38.62-8.56 75.25-23.88 108.09-40.74 87.36-129.36 147.91-232.12 147.91v-354.38s14.2-58.02 73.03-58.02c31.11 0 56.97 22.39 62.4 51.93 6.44-6.13 15.14-9.9 24.72-9.9 9.87 0 18.8 3.98 25.28 10.43 4.65-14.41 18.16-24.84 34.11-24.84.59 0 1.19.01 1.77.05 4.63 7.94 8.85 16.15 12.61 24.61.01.02.02.05.03.07 5.1 11.41 9.37 23.27 12.76 35.5 6.06 21.81 9.29 44.8 9.29 68.55z" fill="#d0f6ff"/><path d="m490.02 359.93c-6.08 13.66-13.32 26.7-21.6 38.98h-424.84c-22.79-33.8-37.72-73.34-42.18-115.99l69.05-67.13c10.57-10.28 27.44-10.16 37.87.27l55.69 55.69c11.44 11.44 29.99 11.44 41.43 0 4.54-4.53 10.48-6.8 16.42-6.8 5.95 0 11.9 2.27 16.43 6.8l17.71 17.71 26.55 26.55c5.5 5.49 12.95 8.58 20.72 8.58h135.99c9.87 0 19.34 3.92 26.32 10.9z" fill="#b6e337"/><path d="m490.02 359.93c-6.08 13.66-13.32 26.7-21.6 38.98h-212.42v-109.45l26.55 26.55c5.5 5.49 12.95 8.58 20.72 8.58h135.99c9.87 0 19.34 3.92 26.32 10.9z" fill="#6cdc2d"/><path d="m430.697 359.748c-.057-4.016-.136-8.487-.237-13.352-.029-1.172-.05-2.361-.086-3.577-.093-4.194-.208-8.657-.345-13.361-.029-1.18-.065-2.37-.108-3.577-.129-4.284-.28-8.738-.445-13.361-.043-1.18-.093-2.37-.136-3.577-.172-4.328-.352-8.782-.553-13.361-.057-1.18-.108-2.379-.165-3.577-.201-4.355-.424-8.818-.661-13.361-.065-1.189-.129-2.379-.194-3.577-.237-4.382-.496-8.836-.776-13.361-.072-1.18-.144-2.379-.223-3.577-.273-4.4-.575-8.854-.891-13.361-.086-1.189-.165-2.379-.251-3.577-.323-4.418-.661-8.872-1.027-13.361-.093-1.189-.187-2.379-.287-3.577-.097-1.17-.197-2.344-.298-3.52-.294-3.414-3.149-6.04-6.575-6.04h-1.208c-3.409 0-6.257 2.591-6.569 5.987-.108 1.173-.216 2.364-.324 3.574-.108 1.172-.208 2.37-.316 3.577-.366 4.239-.733 8.693-1.099 13.361-.093 1.18-.187 2.37-.273 3.577-.323 4.275-.646 8.729-.962 13.361-.079 1.18-.158 2.37-.237 3.577-.287 4.302-.567 8.755-.847 13.361-.065 1.18-.136 2.37-.208 3.577-.251 4.32-.496 8.773-.733 13.361-.057 1.181-.122 2.379-.179 3.577-.216 4.338-.431 8.791-.632 13.361-.057 1.181-.108 2.37-.158 3.577-.187 4.346-.374 8.8-.546 13.361-.043 1.181-.093 2.379-.136 3.577-.158 4.355-.316 8.809-.46 13.361-.036 1.189-.072 2.379-.108 3.577-.136 4.364-.266 8.818-.388 13.352-.036 1.189-.065 2.379-.094 3.577-.165 6.439-.316 13.057-.445 19.845h29.346s.036-7.271-.122-19.845c-.008-1.146-.03-2.344-.044-3.578z" fill="#c55733"/><path d="m430.697 359.748c-.057-4.016-.136-8.487-.237-13.352-.029-1.172-.05-2.361-.086-3.577-.093-4.194-.208-8.657-.345-13.361-.029-1.18-.065-2.37-.108-3.577-.129-4.284-.28-8.738-.445-13.361-.043-1.18-.093-2.37-.136-3.577-.172-4.328-.352-8.782-.553-13.361-.057-1.18-.108-2.379-.165-3.577-.201-4.355-.424-8.818-.661-13.361-.065-1.189-.129-2.379-.194-3.577-.237-4.382-.496-8.836-.776-13.361-.072-1.18-.144-2.379-.223-3.577-.273-4.4-.575-8.854-.891-13.361-.086-1.189-.165-2.379-.251-3.577-.323-4.418-.661-8.872-1.027-13.361-.093-1.189-.187-2.379-.287-3.577-.097-1.17-.197-2.344-.298-3.52-.294-3.414-3.149-6.04-6.575-6.04v168.477h13.423s.036-7.271-.122-19.845c-.007-1.145-.029-2.343-.043-3.577z" fill="#a63917"/><path d="m488.12 364.09c-7.052 15.119-15.536 29.434-25.28 42.77-16.827 23.033-206.84 47.19-206.84 47.19-1.05 0-190.013-24.157-206.84-47.19-9.743-13.337-18.228-27.651-25.28-42.77z" fill="#ec781b"/><path d="m488.12 364.09c-7.05 15.118-15.535 29.434-25.278 42.771-46.558 63.733-121.865 34.06-206.842 34.06v-76.831z" fill="#c55733"/><path d="m462.84 406.86c-46.56 63.74-121.87 105.14-206.84 105.14s-160.28-41.4-206.84-105.14c5.29-2.18 11.69-3.72 20.7-3.72 31.02 0 31.02 18.2 62.04 18.2 31.03 0 31.03-18.2 62.05-18.2s31.02 18.2 62.04 18.2h.01c31.01 0 31.01-18.2 62.04-18.2 31.02 0 31.02 18.2 62.04 18.2 31.03 0 31.03-18.2 62.05-18.2 9.02 0 15.41 1.54 20.71 3.72z" fill="#d0f6ff"/><path d="m462.84 406.86c-46.56 63.74-121.87 105.14-206.84 105.14v-90.66c31.01 0 31.01-18.2 62.04-18.2 31.02 0 31.02 18.2 62.04 18.2 31.03 0 31.03-18.2 62.05-18.2 9.02 0 15.41 1.54 20.71 3.72z" fill="#84c3f7"/><path d="m438.07 435.94c-12.65 12.8-26.64 24.28-41.74 34.2-11.02 7.23-22.63 13.64-34.74 19.13-32.19 14.6-67.94 22.73-105.59 22.73s-73.41-8.13-105.6-22.74c-11.87-5.37-23.25-11.63-34.06-18.68-15.36-10.02-29.58-21.65-42.42-34.64 27.02 1.52 28.38 18.11 57.98 18.11 31.03 0 31.03-18.22 62.05-18.22s31.02 18.22 62.04 18.22h.01c31.01 0 31.01-18.22 62.04-18.22 31.02 0 31.02 18.22 62.04 18.22 29.61 0 30.97-16.59 57.99-18.11z" fill="#fff"/><path d="m438.07 435.94c-12.65 12.8-26.64 24.28-41.74 34.2-11.02 7.23-22.63 13.64-34.74 19.13-32.19 14.6-67.94 22.73-105.59 22.73v-57.95c31.01 0 31.01-18.22 62.04-18.22 31.02 0 31.02 18.22 62.04 18.22 29.61 0 30.97-16.59 57.99-18.11z" fill="#d0f6ff"/><path d="m361.59 489.27c-32.19 14.6-67.94 22.73-105.59 22.73s-73.41-8.13-105.6-22.74c14.49-5.13 20.33-15.35 43.55-15.35 31.02 0 31.02 18.23 62.04 18.23h.01c31.01 0 31.01-18.23 62.04-18.23 23.23 0 29.06 10.22 43.55 15.36z" fill="#84c3f7"/><path d="m502.71 187.45-40.55 23.96-19.5-5.88-4.01 17.32-.58 2.52-20.63 11.96c-5.62-29.2 7.38-60.02 34.56-75.77 11.95-6.93 25.06-10.03 37.92-9.68.01.02.02.05.03.07 5.1 11.41 9.37 23.27 12.76 35.5z" fill="#02a041"/><path d="m512 256c0 6.68-.26 13.29-.76 19.84l-3.44-10.89-18.09 7.04-27.85-13.36-5.85-18.51-18.08 7.03-20.49-9.82c6.15-6.19 13.37-11.07 21.21-14.48 17.61-7.67 38.32-7.94 57 1.02 5.71 2.74 10.87 6.16 15.42 10.13.61 7.25.93 14.59.93 22z" fill="#b6e337"/><path d="m417.439 237.435-20.66-11.976-4.601-19.87-19.528 5.883-28.089-16.282-4.601-19.87-19.528 5.883-20.66-11.976c22.581-19.414 55.839-23.459 83.059-7.681 27.214 15.776 40.232 46.646 34.608 75.889z" fill="#02a041"/><path d="m417.439 237.331-20.488 9.824-18.087-7.032-5.842 18.506-27.856 13.357-18.087-7.032-5.842 18.506-20.488 9.824c-3.16-28.158 11.484-56.474 38.478-69.417 26.988-12.942 58.235-6.631 78.212 13.464z" fill="#b6e337"/><path d="m361.59 489.27c-32.19 14.6-67.94 22.73-105.59 22.73v-19.86c31.01 0 31.01-18.23 62.04-18.23 23.23 0 29.06 10.22 43.55 15.36z" fill="#65b2fe"/><path d="m76.073 285.438h27.197v78.652h-27.197z" fill="#83250d"/><path d="m89.671 285.438h13.599v78.652h-13.599z" fill="#531d10"/><path d="m146.538 279.326v35.672c0 4.806-3.892 8.699-8.699 8.699h-96.335c-4.799 0-8.699-3.892-8.699-8.699v-35.672c0-4.806 3.9-8.699 8.699-8.699h96.335c4.806 0 8.699 3.892 8.699 8.699z" fill="#ec781b"/><path d="m146.538 279.326v35.672c0 4.806-3.892 8.699-8.699 8.699h-67.9c-4.799 0-8.699-3.892-8.699-8.699v-35.672c0-4.806 3.9-8.699 8.699-8.699h67.9c4.806 0 8.699 3.892 8.699 8.699z" fill="#c55733"/><path d="m146.538 279.326v35.672c0 4.806-3.892 8.699-8.699 8.699h-48.164v-53.069h48.164c4.806-.001 8.699 3.891 8.699 8.698z" fill="#a63917"/><g fill="#531d10"><path d="m53.671 290.943c-.857 0-1.417.264-1.417.956 0 2.901 11.965 1.088 11.965 9.461 0 5.142-4.515 7.416-9.724 7.416-4.021 0-8.504-1.352-11.57-3.692l2.835-5.735c2.374 1.978 6.461 3.593 8.801 3.593 1.12 0 1.846-.363 1.846-1.186 0-3-11.965-1.022-11.965-9.131 0-4.615 3.89-7.515 9.889-7.515 3.658 0 7.449 1.088 10.053 2.736l-2.769 5.801c-2.34-1.286-5.933-2.704-7.944-2.704z"/><path d="m81.922 305.282h-8.67l-1.186 3.263h-7.845l9.757-23.107h7.846l9.394 23.107h-8.142zm-1.879-5.472-2.374-6.757-2.439 6.757z"/><path d="m100.186 285.438v16.745h9.625v6.362h-17.272v-23.107z"/><path d="m131.338 285.438v5.801h-11.9v2.835h10.812v5.801h-10.812v2.868h12.196v5.801h-19.843v-23.107h19.547z"/></g></svg>